<svg width="274" height="283" viewBox="0 0 274 283" fill="none" xmlns="http://www.w3.org/2000/svg">
<g clip-path="url(#clip0)">
<path d="M66.6974 127.26C77.0513 127.26 85.4447 115.664 85.4447 101.359C85.4447 87.0548 77.0513 75.4587 66.6974 75.4587C56.3435 75.4587 47.95 87.0548 47.95 101.359C47.95 115.664 56.3435 127.26 66.6974 127.26Z" fill="#2F2E41"/>
<path d="M51.0145 266.553L40.1987 267.776C40.1987 267.776 36.5934 275.118 30.104 275.118C23.6145 275.118 25.7776 283.276 35.1513 282.46C44.525 281.644 54.6197 278.789 54.9803 277.973C55.3408 277.158 53.8987 266.145 51.0145 266.553Z" fill="#3F3D56"/>
<path opacity="0.1" d="M51.0145 266.553L40.1987 267.776C40.1987 267.776 36.5934 275.118 30.104 275.118C23.6145 275.118 25.7776 283.276 35.1513 282.46C44.525 281.644 54.6197 278.789 54.9803 277.973C55.3408 277.158 53.8987 266.145 51.0145 266.553Z" fill="black"/>
<path d="M35.8724 195.173C35.8724 195.173 48.1303 197.212 52.8171 203.738C57.5039 210.265 54.2592 178.857 54.2592 178.857L52.8171 164.581L43.0829 165.397L35.1513 183.752L35.8724 195.173Z" fill="#3F3D56"/>
<path opacity="0.1" d="M35.8724 195.173C35.8724 195.173 48.1303 197.212 52.8171 203.738C57.5039 210.265 54.2592 178.857 54.2592 178.857L52.8171 164.581L43.0829 165.397L35.1513 183.752L35.8724 195.173Z" fill="black"/>
<path d="M76.2513 113.596C76.2513 113.596 82.0197 95.649 76.2513 95.2411C70.4829 94.8332 71.204 112.78 71.204 112.78L76.2513 113.596Z" fill="#A0616A"/>
<path d="M1.80264 53.4329H13.5169C13.7567 53.4329 13.9867 53.5407 14.1562 53.7325C14.3258 53.9243 14.4211 54.1845 14.4211 54.4558V60.1598C14.4211 60.2941 14.3977 60.4271 14.3522 60.5512C14.3068 60.6753 14.2402 60.7881 14.1562 60.8831C14.0723 60.9781 13.9726 61.0534 13.8629 61.1048C13.7532 61.1562 13.6356 61.1827 13.5169 61.1827H1.80264V53.4329Z" fill="#813FC3"/>
<path d="M0.953834 53.4329H12.7958C13.0356 53.4329 13.2656 53.5407 13.4352 53.7325C13.6047 53.9243 13.7 54.1845 13.7 54.4558V60.1598C13.7 60.2941 13.6766 60.4271 13.6312 60.5512C13.5857 60.6753 13.5191 60.7881 13.4352 60.8831C13.3512 60.9781 13.2515 61.0534 13.1419 61.1048C13.0322 61.1562 12.9146 61.1827 12.7958 61.1827H0.953834C0.700861 61.1827 0.45825 61.069 0.279371 60.8666C0.100493 60.6643 0 60.3898 0 60.1036L0 54.512C0 54.2258 0.100493 53.9513 0.279371 53.749C0.45825 53.5466 0.700861 53.4329 0.953834 53.4329Z" fill="#2F2E41"/>
<path d="M10.8158 57.9196C11.214 57.9196 11.5368 57.5544 11.5368 57.1039C11.5368 56.6533 11.214 56.2881 10.8158 56.2881C10.4176 56.2881 10.0947 56.6533 10.0947 57.1039C10.0947 57.5544 10.4176 57.9196 10.8158 57.9196Z" fill="#813FC3"/>
<path d="M9.91448 62.6103C9.91448 62.6103 0.901318 43.0318 0.180265 52.4132C-0.540788 61.7945 4.86711 69.5443 4.86711 69.5443L9.91448 62.6103Z" fill="#A0616A"/>
<path d="M62.3751 109.554C62.3751 109.554 70.3026 110.129 71.0237 115.024C71.7447 119.918 65.2553 135.01 65.2553 135.01L56.6026 134.194L55.5211 124.405L62.3751 109.554Z" fill="#3F3D56"/>
<path d="M52.4566 95.241C52.4566 95.241 55.3408 111.964 45.9671 105.03C36.5934 98.0962 49.5724 117.267 49.5724 117.267C49.5724 117.267 59.6671 120.122 62.9118 116.451C66.1566 112.78 58.0447 112.168 62.5513 97.6883C67.396 82.1222 52.4566 95.241 52.4566 95.241Z" fill="#A0616A"/>
<path opacity="0.1" d="M52.4566 95.241C52.4566 95.241 55.3408 111.964 45.9671 105.03C36.5934 98.0962 49.5724 117.267 49.5724 117.267C49.5724 117.267 59.6671 120.122 62.9118 116.451C66.1566 112.78 58.0447 112.168 62.5513 97.6883C67.396 82.1222 52.4566 95.241 52.4566 95.241Z" fill="black"/>
<path d="M20.55 152.549C20.55 152.549 28.6618 219.238 31.1855 223.317C33.7092 227.396 42.3618 264.105 42.3618 264.105L51.7355 260.434C51.0667 255.988 50.9454 251.458 51.375 246.974C52.096 239.632 45.9671 220.054 45.9671 220.054L36.9539 159.687L20.55 152.549Z" fill="#2F2E41"/>
<path opacity="0.1" d="M20.55 152.549C20.55 152.549 28.6618 219.238 31.1855 223.317C33.7092 227.396 42.3618 264.105 42.3618 264.105L51.7355 260.434C51.0667 255.988 50.9454 251.458 51.375 246.974C52.096 239.632 45.9671 220.054 45.9671 220.054L36.9539 159.687L20.55 152.549Z" fill="black"/>
<path d="M18.5671 149.49L26.4987 175.186C26.4987 175.186 9.91448 209.041 23.6145 220.054C23.6145 220.054 39.4776 239.632 40.9197 256.763C40.9197 256.763 49.2118 255.948 50.2934 248.606C50.2934 248.606 42.7224 229.843 42.3618 223.317C42.0013 216.791 33.7092 209.041 33.7092 209.041C33.7092 209.041 49.5724 180.081 53.1776 175.186C56.7829 170.292 57.1434 151.529 48.1303 151.529C39.1171 151.529 18.5671 149.49 18.5671 149.49Z" fill="#2F2E41"/>
<path d="M49.5724 248.606C49.5724 248.606 43.4434 257.171 41.6408 255.948C41.6408 255.948 40.1987 273.487 36.9539 278.381C33.7092 283.276 43.8039 282.868 47.4092 278.381C51.0145 273.895 57.8645 256.763 57.8645 254.724C57.8645 252.685 51.7355 247.382 49.5724 248.606Z" fill="#3F3D56"/>
<path d="M58.5855 102.175C63.9616 102.175 68.3197 97.2445 68.3197 91.1622C68.3197 85.08 63.9616 80.1494 58.5855 80.1494C53.2095 80.1494 48.8513 85.08 48.8513 91.1622C48.8513 97.2445 53.2095 102.175 58.5855 102.175Z" fill="#A0616A"/>
<path d="M48.1303 104.215C48.1303 104.215 48.4908 111.149 53.8987 112.78C59.3066 114.412 63.6329 110.333 63.6329 110.333L65.075 113.596L60.3882 126.648L51.7355 158.463C51.7355 158.463 26.1382 162.542 23.975 155.608C21.8119 148.674 27.5803 129.095 27.5803 129.095L35.8724 115.635L39.1171 106.662L42.7224 102.175L48.1303 104.215Z" fill="#813FC3"/>
<path d="M50.2934 105.846C50.2934 105.846 44.7053 99.5239 41.1 99.5239C37.4947 99.5239 34.4303 96.8726 34.4303 96.8726C34.4303 96.8726 22.5329 116.451 15.3224 140.108C8.11184 163.766 -1.98289 171.108 3.06447 176.818C8.11184 182.528 16.0434 181.305 19.2882 187.423C22.5329 193.541 22.5329 192.725 24.696 183.344C26.8592 173.963 24.3355 148.266 34.7908 137.253C45.246 126.24 50.2934 105.846 50.2934 105.846Z" fill="#3F3D56"/>
<path d="M35.5119 98.0963C35.5119 98.0963 21.0908 83.4124 19.2882 77.2941C17.4855 71.1759 10.6355 59.7551 9.19343 61.3866C7.75133 63.0182 -0.180254 66.6891 1.62238 69.5443C3.42501 72.3995 7.75133 76.0705 10.275 86.2676C12.7987 96.4647 30.4645 109.517 30.4645 109.517L35.5119 98.0963Z" fill="#3F3D56"/>
<path d="M61.8303 109.517C61.8303 109.517 55.7013 109.925 52.0961 131.543C48.4908 153.161 48.8513 203.738 52.0961 207.817C52.0961 207.817 55.3408 212.304 55.7013 204.146C56.0619 195.989 61.4698 158.055 60.0276 148.266C58.5855 138.477 61.8303 117.267 66.5171 113.596C71.204 109.925 61.8303 109.517 61.8303 109.517Z" fill="#3F3D56"/>
<path d="M58.5855 127.464C58.5855 127.464 70.4829 133.582 70.1224 138.069C69.7618 142.556 69.4013 151.529 54.6197 136.845L58.5855 127.464Z" fill="#3F3D56"/>
<path d="M62.9119 127.464C62.9119 127.464 57.8645 140.924 64.354 143.371C70.8434 145.819 72.6461 131.951 72.6461 131.951C72.6461 131.951 77.6934 116.451 77.3329 113.188C76.9724 109.925 69.7619 109.517 69.0408 111.556C68.3197 113.596 62.9119 127.464 62.9119 127.464Z" fill="#3F3D56"/>
<path d="M66.6974 120.326C69.0867 120.326 71.0237 112.291 71.0237 102.379C71.0237 92.4672 69.0867 84.4321 66.6974 84.4321C64.308 84.4321 62.3711 92.4672 62.3711 102.379C62.3711 112.291 64.308 120.326 66.6974 120.326Z" fill="#2F2E41"/>
<path d="M63.4526 89.3267C70.6207 89.3267 76.4316 86.131 76.4316 82.1888C76.4316 78.2466 70.6207 75.0508 63.4526 75.0508C56.2846 75.0508 50.4737 78.2466 50.4737 82.1888C50.4737 86.131 56.2846 89.3267 63.4526 89.3267Z" fill="#2F2E41"/>
<path opacity="0.1" d="M64.5342 88.511C57.3661 88.511 51.5553 85.3152 51.5553 81.373C51.5553 79.9829 52.2803 78.6867 53.53 77.5896C51.6242 78.8319 50.4737 80.4361 50.4737 82.1888C50.4737 86.131 56.2846 89.3268 63.4526 89.3268C68.0932 89.3268 68.5154 88.511 64.5342 88.511Z" fill="black"/>
<path d="M80.9788 231.379C82.0046 231.997 83.1431 232.337 84.3047 232.372C85.4664 232.407 86.6194 232.136 87.6729 231.581C88.7263 231.027 89.6515 230.202 90.3753 229.174C91.0992 228.145 91.6021 226.941 91.8443 225.655C92.0865 224.369 92.0613 223.037 91.7709 221.764C91.4805 220.491 90.9327 219.312 90.1707 218.319C89.4088 217.327 88.4534 216.548 87.38 216.044C86.3066 215.541 85.1444 215.326 83.9852 215.417L83.6298 219.773L82.2846 215.776C80.3909 216.435 78.8061 217.918 77.8785 219.899C77.5503 220.593 77.3107 221.335 77.1667 222.104C76.8244 223.909 77.0113 225.791 77.6993 227.464C78.3872 229.138 79.5385 230.512 80.9788 231.379Z" fill="#57B894"/>
<path d="M83.6525 282.989C83.4742 279.208 86.6497 276.389 89.6485 274.707C92.6473 273.024 96.1018 271.453 97.4847 268.004C99.4721 263.048 96.0719 257.673 93.4753 253.091C91.5489 249.691 89.9855 246.045 88.8178 242.229C88.3498 240.699 87.9422 239.112 87.9712 237.493C88.013 235.162 88.9492 232.985 89.8785 230.904C92.9743 223.971 96.2135 217.122 99.5962 210.359" stroke="#3F3D56" stroke-miterlimit="10"/>
<path d="M81.4242 230.314C82.4499 230.932 83.5884 231.272 84.7501 231.307C85.9117 231.342 87.0647 231.072 88.1182 230.517C89.1717 229.962 90.0968 229.138 90.8207 228.109C91.5446 227.081 92.0474 225.876 92.2896 224.59C92.5318 223.304 92.5067 221.972 92.2163 220.699C91.9259 219.426 91.3781 218.247 90.6161 217.255C89.8541 216.262 88.8987 215.483 87.8253 214.979C86.7519 214.476 85.5898 214.261 84.4305 214.352L84.0752 218.708L82.7299 214.711C80.8362 215.37 79.2514 216.854 78.3238 218.834C77.9957 219.528 77.756 220.27 77.612 221.04C77.2697 222.844 77.4567 224.726 78.1446 226.399C78.8325 228.073 79.9839 229.447 81.4242 230.314Z" stroke="#3F3D56" stroke-miterlimit="10"/>
<path d="M92.1536 207.643C92.7437 206.386 93.6039 205.318 94.6549 204.536C95.706 203.754 96.9141 203.284 98.1678 203.17L98.2649 207.38L99.9395 203.243C101.511 203.521 102.963 204.357 104.087 205.631C105.211 206.904 105.948 208.549 106.192 210.327C106.436 212.105 106.174 213.925 105.444 215.524C104.714 217.122 103.554 218.417 102.131 219.221C100.708 220.026 99.0962 220.297 97.5279 219.998C95.9597 219.698 94.5162 218.842 93.4059 217.554C92.2956 216.265 91.5759 214.611 91.3509 212.83C91.1258 211.048 91.4069 209.232 92.1536 207.643Z" fill="#57B894"/>
<path d="M92.7473 206.224C93.3374 204.967 94.1977 203.898 95.2487 203.116C96.2997 202.335 97.5078 201.865 98.7616 201.75L98.8587 205.961L100.533 201.823C102.105 202.101 103.557 202.938 104.681 204.211C105.805 205.484 106.542 207.129 106.785 208.907C107.029 210.685 106.767 212.505 106.038 214.104C105.308 215.703 104.148 216.998 102.725 217.802C101.302 218.606 99.69 218.878 98.1217 218.578C96.5534 218.278 95.1099 217.422 93.9996 216.134C92.8893 214.845 92.1697 213.191 91.9446 211.41C91.7195 209.628 92.0006 207.812 92.7473 206.224Z" stroke="#3F3D56" stroke-miterlimit="10"/>
<path d="M92.1607 252.966C93.7876 253.944 95.6758 254.211 97.4654 253.716C99.2551 253.22 100.821 251.997 101.865 250.279C102.909 248.562 103.357 246.47 103.125 244.402C102.893 242.334 101.997 240.435 100.606 239.067L99.3197 242.247L99.2224 237.986C99.2167 237.982 99.2108 237.978 99.2046 237.975C98.3345 237.451 97.3817 237.126 96.4005 237.019C95.4194 236.911 94.4292 237.024 93.4865 237.35C92.5438 237.675 91.6671 238.208 90.9064 238.917C90.1458 239.627 89.5161 240.499 89.0534 241.483C88.5907 242.468 88.304 243.546 88.2098 244.656C88.1155 245.766 88.2156 246.887 88.5041 247.953C88.7927 249.019 89.2642 250.011 89.8916 250.871C90.519 251.731 91.29 252.443 92.1607 252.966V252.966Z" fill="#57B894"/>
<path d="M92.7024 251.518C94.3292 252.497 96.2175 252.763 98.0071 252.268C99.7968 251.773 101.363 250.55 102.407 248.832C103.45 247.114 103.899 245.022 103.667 242.954C103.435 240.886 102.538 238.987 101.148 237.619L99.8614 240.799L99.7641 236.539C99.7584 236.535 99.7524 236.531 99.7462 236.528C98.8762 236.004 97.9234 235.679 96.9424 235.572C95.9614 235.465 94.9713 235.577 94.0287 235.903C93.0861 236.229 92.2096 236.762 91.449 237.471C90.6885 238.18 90.0589 239.052 89.5963 240.036C89.1336 241.021 88.847 242.099 88.7527 243.209C88.6584 244.319 88.7584 245.439 89.0468 246.505C89.3353 247.572 89.8066 248.563 90.4338 249.423C91.061 250.283 91.8319 250.995 92.7024 251.518V251.518Z" stroke="#3F3D56" stroke-miterlimit="10"/>
<path d="M82.6798 265.686C82.7371 267.631 83.384 269.495 84.5119 270.965C85.6398 272.435 87.1802 273.421 88.8746 273.759C90.5691 274.096 92.3146 273.764 93.8184 272.819C95.3222 271.873 96.4929 270.371 97.1342 268.565C97.7754 266.759 97.8482 264.758 97.3403 262.898C96.8323 261.038 95.7747 259.433 94.3446 258.35C92.9145 257.268 91.199 256.775 89.4858 256.954C87.7725 257.133 86.1658 257.973 84.935 259.333L87.5398 265.5L83.3913 261.784C82.8813 263.001 82.6373 264.339 82.6798 265.686Z" fill="#57B894"/>
<path d="M83.1251 264.621C83.1825 266.566 83.8294 268.43 84.9573 269.9C86.0852 271.37 87.6255 272.356 89.3199 272.694C91.0144 273.031 92.7599 272.699 94.2637 271.754C95.7675 270.808 96.9382 269.306 97.5795 267.5C98.2207 265.694 98.2935 263.693 97.7856 261.833C97.2777 259.973 96.22 258.368 94.7899 257.285C93.3598 256.203 91.6443 255.71 89.9311 255.889C88.2179 256.068 86.6111 256.908 85.3803 258.268L87.9851 264.435L83.8367 260.719C83.3266 261.936 83.0826 263.274 83.1251 264.621V264.621Z" stroke="#3F3D56" stroke-miterlimit="10"/>
<path d="M1.62238 282.052H148.357" stroke="#3F3D56" stroke-miterlimit="10"/>
<path d="M233.08 46.2949H125.643V126.24H233.08V46.2949Z" fill="#F2F2F2"/>
<path d="M273.82 0.203949H99.6855V155.608H273.82V0.203949Z" stroke="#3F3D56" stroke-miterlimit="10"/>
<path d="M99.8658 9.1774H274" stroke="#3F3D56" stroke-miterlimit="10"/>
<path d="M103.291 7.13799C104.286 7.13799 105.093 6.22491 105.093 5.09857C105.093 3.97222 104.286 3.05914 103.291 3.05914C102.295 3.05914 101.488 3.97222 101.488 5.09857C101.488 6.22491 102.295 7.13799 103.291 7.13799Z" fill="#F86B75"/>
<path d="M108.338 7.13799C109.334 7.13799 110.141 6.22491 110.141 5.09857C110.141 3.97222 109.334 3.05914 108.338 3.05914C107.343 3.05914 106.536 3.97222 106.536 5.09857C106.536 6.22491 107.343 7.13799 108.338 7.13799Z" fill="#FAD375"/>
<path d="M113.386 7.13799C114.381 7.13799 115.188 6.22491 115.188 5.09857C115.188 3.97222 114.381 3.05914 113.386 3.05914C112.39 3.05914 111.583 3.97222 111.583 5.09857C111.583 6.22491 112.39 7.13799 113.386 7.13799Z" fill="#8BCC55"/>
<path d="M104.012 5.91433C105.007 5.91433 105.814 5.00124 105.814 3.8749C105.814 2.74856 105.007 1.83548 104.012 1.83548C103.016 1.83548 102.209 2.74856 102.209 3.8749C102.209 5.00124 103.016 5.91433 104.012 5.91433Z" stroke="#3F3D56" stroke-miterlimit="10"/>
<path d="M109.059 5.91433C110.055 5.91433 110.862 5.00124 110.862 3.8749C110.862 2.74856 110.055 1.83548 109.059 1.83548C108.064 1.83548 107.257 2.74856 107.257 3.8749C107.257 5.00124 108.064 5.91433 109.059 5.91433Z" stroke="#3F3D56" stroke-miterlimit="10"/>
<path d="M114.107 5.91433C115.102 5.91433 115.909 5.00124 115.909 3.8749C115.909 2.74856 115.102 1.83548 114.107 1.83548C113.111 1.83548 112.304 2.74856 112.304 3.8749C112.304 5.00124 113.111 5.91433 114.107 5.91433Z" stroke="#3F3D56" stroke-miterlimit="10"/>
<path d="M241.553 37.5254H134.116V117.471H241.553V37.5254Z" stroke="#3F3D56" stroke-miterlimit="10"/>
<path d="M239.75 135.01H219.921V141.128H239.75V135.01Z" fill="#813FC3"/>
<path d="M241.553 133.378H221.724V139.497H241.553V133.378Z" stroke="#3F3D56" stroke-miterlimit="10"/>
<path d="M189.056 84.247L180.761 74.5746C180.58 74.3681 180.364 74.2057 180.125 74.0973C179.887 73.9889 179.631 73.9368 179.374 73.9442H179.349C179.093 73.9368 178.837 73.9889 178.599 74.0973C178.36 74.2057 178.144 74.3681 177.963 74.5746L169.667 84.247C169.484 84.4407 169.338 84.675 169.238 84.9352C169.138 85.1954 169.087 85.4761 169.087 85.7598C169.087 86.0435 169.138 86.3242 169.238 86.5844C169.338 86.8446 169.484 87.0789 169.667 87.2726C170.047 87.6743 170.547 87.8977 171.066 87.8977C171.586 87.8977 172.086 87.6743 172.465 87.2726L177.381 81.4594V96.4477C177.404 97.0248 177.622 97.5697 177.991 97.9689C178.36 98.3681 178.851 98.5909 179.362 98.5909C179.872 98.5909 180.363 98.3681 180.732 97.9689C181.101 97.5697 181.32 97.0248 181.343 96.4477V81.4594L186.258 87.2726C186.638 87.6743 187.138 87.8977 187.657 87.8977C188.177 87.8977 188.677 87.6743 189.056 87.2726C189.24 87.0789 189.386 86.8446 189.486 86.5844C189.585 86.3242 189.637 86.0435 189.637 85.7598C189.637 85.4761 189.585 85.1954 189.486 84.9352C189.386 84.675 189.24 84.4407 189.056 84.247Z" fill="#813FC3"/>
</g>
<defs>
<clipPath id="clip0">
<rect width="274" height="283" fill="white"/>
</clipPath>
</defs>
</svg>
