<svg width="335" height="287" viewBox="0 0 335 287" fill="none" xmlns="http://www.w3.org/2000/svg">
<g clip-path="url(#clip0)">
<path d="M87.325 39.9032H16.3973V101.702H87.325V39.9032Z" fill="#813FC3"/>
<path d="M212.783 120.528H16.3973V127.076H212.783V120.528Z" fill="#F2F2F2"/>
<path d="M82.3677 36.2198H11.4399V98.0187H82.3677V36.2198Z" stroke="#3F3D56" stroke-miterlimit="10"/>
<path d="M184.183 56.8876H115.544V63.4358H184.183V56.8876Z" fill="#F2F2F2"/>
<path d="M212.783 74.486H115.544V81.0342H212.783V74.486Z" fill="#F2F2F2"/>
<path d="M179.226 53.2043H110.586V59.7525H179.226V53.2043Z" stroke="#3F3D56" stroke-miterlimit="10"/>
<path d="M207.826 70.8026H110.586V77.3508H207.826V70.8026Z" stroke="#3F3D56" stroke-miterlimit="10"/>
<path d="M207.826 116.845H11.4399V123.393H207.826V116.845Z" stroke="#3F3D56" stroke-miterlimit="10"/>
<path d="M212.783 140.991H16.3973V147.54H212.783V140.991Z" fill="#F2F2F2"/>
<path d="M207.826 137.308H11.4399V143.856H207.826V137.308Z" stroke="#3F3D56" stroke-miterlimit="10"/>
<path d="M212.783 161.454H16.3973V168.003H212.783V161.454Z" fill="#F2F2F2"/>
<path d="M207.826 157.771H11.4399V164.319H207.826V157.771Z" stroke="#3F3D56" stroke-miterlimit="10"/>
<path d="M212.783 181.918H16.3973V188.466H212.783V181.918Z" fill="#F2F2F2"/>
<path d="M207.826 178.234H11.4399V184.782H207.826V178.234Z" stroke="#3F3D56" stroke-miterlimit="10"/>
<path d="M212.783 202.381H16.3973V208.929H212.783V202.381Z" fill="#F2F2F2"/>
<path d="M207.826 198.698H11.4399V205.246H207.826V198.698Z" stroke="#3F3D56" stroke-miterlimit="10"/>
<path d="M212.783 222.844H16.3973V229.392H212.783V222.844Z" fill="#F2F2F2"/>
<path d="M207.826 219.161H11.4399V225.709H207.826V219.161Z" stroke="#3F3D56" stroke-miterlimit="10"/>
<path d="M224.033 0.204651H0.191162V265.407H224.033V0.204651Z" stroke="#3F3D56" stroke-miterlimit="10"/>
<path d="M309.587 236.861C310.718 237.302 311.93 237.456 313.126 237.309C314.322 237.162 315.469 236.719 316.479 236.015C317.488 235.311 318.331 234.365 318.941 233.252C319.552 232.138 319.913 230.888 319.996 229.599C320.08 228.31 319.883 227.018 319.422 225.825C318.961 224.632 318.247 223.57 317.339 222.723C316.43 221.876 315.35 221.267 314.184 220.944C313.019 220.621 311.799 220.593 310.622 220.863L310.817 225.156L308.924 221.477C307.066 222.413 305.631 224.103 304.934 226.175C304.687 226.901 304.536 227.661 304.487 228.432C304.368 230.241 304.801 232.042 305.721 233.563C306.641 235.084 307.999 236.242 309.587 236.861Z" fill="#57B894"/>
<path d="M318.952 286.658C318.284 283.007 321.179 279.769 324.039 277.665C326.899 275.561 330.24 273.494 331.216 269.923C332.618 264.791 328.441 260.091 325.19 256.039C322.778 253.031 320.707 249.727 319.019 246.196C318.286 244.809 317.786 243.294 317.543 241.72C317.287 239.446 317.968 237.182 318.654 235.012C320.939 227.784 323.383 220.616 325.984 213.509" stroke="#3F3D56" stroke-miterlimit="10"/>
<path d="M309.907 235.755C311.038 236.197 312.25 236.35 313.446 236.203C314.642 236.057 315.789 235.614 316.799 234.91C317.808 234.206 318.651 233.26 319.261 232.146C319.872 231.033 320.233 229.782 320.316 228.494C320.4 227.205 320.203 225.913 319.742 224.719C319.281 223.526 318.568 222.464 317.659 221.617C316.75 220.77 315.67 220.161 314.505 219.838C313.339 219.516 312.12 219.488 310.942 219.757L311.137 224.051L309.244 220.371C307.387 221.308 305.951 222.998 305.254 225.07C305.007 225.795 304.856 226.555 304.807 227.326C304.688 229.135 305.121 230.937 306.041 232.458C306.962 233.979 308.319 235.137 309.907 235.755V235.755Z" stroke="#3F3D56" stroke-miterlimit="10"/>
<path d="M318.002 212.027C318.446 210.712 319.191 209.538 320.169 208.614C321.147 207.689 322.325 207.044 323.596 206.737L324.236 210.819L325.423 206.532C327.07 206.558 328.667 207.145 329.983 208.209C331.299 209.273 332.266 210.758 332.744 212.45C333.223 214.142 333.188 215.953 332.644 217.623C332.101 219.292 331.077 220.733 329.721 221.737C328.365 222.741 326.747 223.256 325.1 223.209C323.453 223.162 321.862 222.554 320.558 221.474C319.254 220.393 318.304 218.896 317.844 217.198C317.385 215.499 317.44 213.689 318.002 212.027Z" fill="#57B894"/>
<path d="M318.429 210.553C318.873 209.238 319.618 208.064 320.596 207.14C321.573 206.216 322.752 205.57 324.023 205.263L324.663 209.345L325.85 205.058C327.497 205.084 329.094 205.671 330.41 206.735C331.726 207.799 332.693 209.284 333.171 210.976C333.649 212.668 333.614 214.48 333.071 216.149C332.527 217.818 331.504 219.259 330.148 220.263C328.792 221.267 327.173 221.783 325.526 221.735C323.88 221.688 322.289 221.08 320.985 220C319.681 218.919 318.731 217.422 318.271 215.724C317.812 214.026 317.867 212.215 318.429 210.553V210.553Z" stroke="#3F3D56" stroke-miterlimit="10"/>
<path d="M323.826 256.121C325.62 256.82 327.59 256.785 329.362 256.024C331.134 255.264 332.583 253.829 333.434 251.996C334.284 250.162 334.475 248.056 333.972 246.081C333.468 244.105 332.305 242.397 330.704 241.283L329.792 244.577L329.146 240.447C329.14 240.444 329.133 240.441 329.126 240.439C328.167 240.065 327.148 239.897 326.128 239.945C325.108 239.994 324.106 240.258 323.181 240.721C322.256 241.185 321.426 241.84 320.737 242.649C320.047 243.457 319.514 244.404 319.165 245.434C318.817 246.464 318.661 247.558 318.707 248.652C318.753 249.747 318.999 250.821 319.432 251.814C319.865 252.806 320.476 253.698 321.23 254.437C321.983 255.176 322.865 255.748 323.826 256.121Z" fill="#57B894"/>
<path d="M324.195 254.629C325.989 255.327 327.96 255.292 329.732 254.532C331.504 253.771 332.953 252.337 333.803 250.503C334.653 248.669 334.845 246.564 334.342 244.588C333.838 242.612 332.675 240.904 331.074 239.79L330.162 243.084L329.516 238.954C329.509 238.951 329.503 238.948 329.496 238.946C328.536 238.572 327.518 238.404 326.498 238.453C325.478 238.502 324.477 238.765 323.552 239.229C322.627 239.693 321.796 240.348 321.107 241.157C320.418 241.965 319.885 242.912 319.536 243.942C319.188 244.972 319.033 246.065 319.078 247.16C319.124 248.254 319.37 249.329 319.803 250.321C320.236 251.313 320.846 252.205 321.6 252.944C322.354 253.683 323.236 254.255 324.195 254.629V254.629Z" stroke="#3F3D56" stroke-miterlimit="10"/>
<path d="M315.734 269.974C316.043 271.858 316.945 273.571 318.291 274.825C319.636 276.079 321.342 276.799 323.124 276.864C324.905 276.928 326.652 276.333 328.073 275.179C329.494 274.024 330.502 272.381 330.928 270.523C331.354 268.666 331.172 266.708 330.412 264.978C329.653 263.247 328.362 261.85 326.756 261.02C325.151 260.19 323.328 259.977 321.594 260.418C319.86 260.86 318.32 261.927 317.232 263.442L320.695 269.036L315.963 266.067C315.596 267.331 315.518 268.671 315.734 269.974Z" fill="#57B894"/>
<path d="M316.054 268.869C316.363 270.753 317.265 272.465 318.611 273.72C319.956 274.974 321.662 275.694 323.444 275.758C325.225 275.823 326.972 275.228 328.393 274.073C329.814 272.919 330.822 271.275 331.248 269.418C331.674 267.561 331.492 265.603 330.732 263.872C329.973 262.142 328.682 260.745 327.076 259.914C325.471 259.084 323.648 258.872 321.914 259.313C320.18 259.754 318.64 260.822 317.552 262.337L321.015 267.93L316.283 264.961C315.916 266.225 315.838 267.565 316.054 268.869V268.869Z" stroke="#3F3D56" stroke-miterlimit="10"/>
<path d="M224.223 96.177C224.223 96.177 228.99 107.022 228.227 110.297C227.781 112.287 227.983 114.381 228.799 116.231L237.57 115.822L245.768 107.432C245.768 107.432 233.375 98.2233 234.138 93.7214C234.9 89.2195 224.223 96.177 224.223 96.177Z" fill="#A0616A"/>
<path d="M246.34 113.366L250.154 138.74C250.154 138.74 250.154 161.659 249.01 162.068C247.866 162.478 242.908 162.068 242.908 162.068V136.285L244.434 113.775L246.34 113.366Z" fill="#813FC3"/>
<path opacity="0.1" d="M246.34 113.366L250.154 138.74C250.154 138.74 250.154 161.659 249.01 162.068C247.866 162.478 242.908 162.068 242.908 162.068V136.285L244.434 113.775L246.34 113.366Z" fill="black"/>
<path d="M269.22 262.338L272.271 275.025L276.847 271.342L281.042 261.11L275.703 254.153L269.22 262.338Z" fill="#A0616A"/>
<path d="M281.042 259.473C281.042 259.473 276.084 263.566 276.084 267.658C276.084 267.658 273.415 272.16 270.364 271.751V280.346C270.364 280.346 260.831 285.666 268.076 286.894C275.322 288.122 280.66 278.299 280.66 278.299C280.66 278.299 287.524 266.431 286.38 264.794C285.236 263.157 281.042 259.473 281.042 259.473Z" fill="#3F3D56"/>
<path d="M246.312 160.134C246.312 160.134 253.586 168.617 250.154 181.713C250.154 181.713 246.34 211.18 258.543 222.23C270.746 233.28 278.754 257.427 278.754 257.427L269.602 266.431C269.602 266.431 259.687 242.284 249.391 232.871C239.095 223.458 237.951 212.817 237.951 212.817V175.574L236.044 160.022L246.312 160.134Z" fill="#3F3D56"/>
<path opacity="0.1" d="M246.312 160.134C246.312 160.134 253.586 168.617 250.154 181.713C250.154 181.713 246.34 211.18 258.543 222.23C270.746 233.28 278.754 257.427 278.754 257.427L269.602 266.431C269.602 266.431 259.687 242.284 249.391 232.871C239.095 223.458 237.951 212.817 237.951 212.817V175.574L236.044 160.022L246.312 160.134Z" fill="black"/>
<path d="M236.807 271.751L232.994 276.253L234.519 279.936L239.095 281.573L247.103 278.299L245.959 273.388L236.807 271.751Z" fill="#A0616A"/>
<path d="M248.247 276.253C248.247 276.253 239.095 281.164 236.807 279.118C236.146 278.551 235.602 277.842 235.209 277.038C234.817 276.234 234.584 275.35 234.526 274.444C234.526 274.444 229.943 275.025 226.892 277.071C223.842 279.118 221.554 281.573 217.74 281.573C213.927 281.573 215.452 286.485 222.698 286.894C229.943 287.303 248.247 286.485 248.247 284.438V276.253Z" fill="#3F3D56"/>
<path d="M222.316 165.342C222.316 165.342 217.359 189.08 226.13 216.091C226.13 216.091 230.324 231.234 232.231 235.736C234.138 240.238 236.044 272.16 235.282 273.388C235.282 273.388 241.383 278.708 246.722 275.025C246.722 275.025 246.34 256.199 247.103 254.562C247.866 252.925 248.628 238.601 244.052 226.732C239.476 214.863 243.29 186.215 243.29 186.215C243.29 186.215 252.442 171.481 245.578 162.887L222.316 165.342Z" fill="#3F3D56"/>
<path d="M228.036 99.0418C233.933 99.0418 238.714 93.9113 238.714 87.5824C238.714 81.2536 233.933 76.123 228.036 76.123C222.14 76.123 217.359 81.2536 217.359 87.5824C217.359 93.9113 222.14 99.0418 228.036 99.0418Z" fill="#A0616A"/>
<path d="M247.866 162.478C247.866 162.478 244.815 167.389 242.527 164.933C240.914 163.202 230.588 166.963 224.631 169.333C222.137 170.323 220.41 171.072 220.41 171.072C220.41 171.072 220.246 165.4 219.762 158.217C219.205 149.975 218.229 139.735 216.596 133.829C213.546 122.779 221.172 118.277 221.172 118.277C221.172 118.277 227.655 110.092 227.274 108.864C226.892 107.636 244.434 101.497 244.434 101.497C246.34 101.907 247.866 120.323 247.866 120.323C247.866 120.323 244.434 135.057 242.527 144.061C240.62 153.064 247.866 162.478 247.866 162.478Z" fill="#813FC3"/>
<path d="M215.071 162.887C215.071 162.887 206.682 171.891 202.487 174.346C198.293 176.802 196.005 184.987 199.437 186.624C202.869 188.261 210.495 177.62 210.495 177.62L221.554 167.798L215.071 162.887Z" fill="#A0616A"/>
<path d="M216.656 80.7386C215.681 80.8319 215.124 82.1502 215.438 83.1454C215.753 84.1407 216.658 84.7917 217.582 85.1396C218.506 85.4875 219.494 85.6066 220.419 85.9513C221.339 86.3124 222.193 86.8445 222.941 87.5232C225.577 89.8399 227.138 93.3699 227.635 96.9872C228.131 100.605 227.636 104.312 226.699 107.827C226.203 109.689 225.393 111.73 223.696 112.392C225.55 111.901 227.362 111.241 229.112 110.421C230.395 109.773 231.598 108.952 232.895 108.336C234.814 107.496 236.827 106.929 238.883 106.651C240.327 106.409 241.853 106.225 243.209 106.81C244.04 107.225 244.805 107.779 245.476 108.45L249.836 112.383C249.912 110.673 249.962 108.962 249.987 107.251C250.008 105.763 250.002 104.233 249.492 102.849C248.987 101.484 248.03 100.371 247.389 99.0726C245.803 95.8611 246.32 91.9923 246.349 88.358C246.38 84.595 245.816 80.7599 244.192 77.4245C242.569 74.089 239.797 71.2958 236.417 70.2972C231.86 68.9511 227.057 70.9546 222.868 73.3041C221.883 73.8073 220.964 74.4491 220.137 75.2127C219.256 76.1777 218.509 77.272 217.916 78.4629L215.842 82.1921" fill="#3F3D56"/>
<path opacity="0.1" d="M243.671 124.416C243.671 124.416 236.426 153.883 235.663 155.929C235.114 157.399 228.654 165.215 224.631 169.333C222.137 170.323 220.41 171.072 220.41 171.072C220.41 171.072 220.246 165.4 219.762 158.217C222.866 154.521 226.13 151.018 226.13 151.018C226.13 151.018 229.562 128.509 229.18 119.914C228.799 111.32 236.807 109.273 236.807 109.273C245.959 110.501 243.671 124.416 243.671 124.416Z" fill="black"/>
<path d="M235.663 107.636C235.663 107.636 227.655 109.683 228.036 118.277C228.418 126.872 224.986 149.381 224.986 149.381C224.986 149.381 212.02 163.296 213.164 164.933C214.308 166.57 219.21 169.789 220.382 170.226C221.554 170.663 233.756 156.339 234.519 154.292C235.282 152.246 242.527 122.779 242.527 122.779C242.527 122.779 244.815 108.864 235.663 107.636Z" fill="#813FC3"/>
<path d="M194.289 286.689H335" stroke="#3F3D56" stroke-miterlimit="10"/>
</g>
<defs>
<clipPath id="clip0">
<rect width="335" height="287" fill="white"/>
</clipPath>
</defs>
</svg>
