<svg width="356" height="283" viewBox="0 0 356 283" fill="none" xmlns="http://www.w3.org/2000/svg">
<g clip-path="url(#clip0)">
<path d="M51.0115 283C79.1844 283 102.023 280.885 102.023 278.277C102.023 275.668 79.1844 273.553 51.0115 273.553C22.8386 273.553 0 275.668 0 278.277C0 280.885 22.8386 283 51.0115 283Z" fill="#E6E6E6"/>
<path d="M67.5332 71.0925L47.1823 64.3544C52.6165 58.129 54.9805 52.2644 54.2743 46.7605H67.5332V71.0925Z" fill="#9F616A"/>
<path d="M69.6917 260.508L63.1181 261.631L55.1992 173.287L42.557 261.257L35.7733 261.631V150.078H77.7087L69.6917 260.508Z" fill="#2F2E41"/>
<path d="M39.1874 278.317C40.2192 278.353 41.2312 277.968 42.0622 277.225C42.8932 276.482 43.4953 275.422 43.7728 274.215L44.253 265.516L43.285 259.347C40.7312 256.799 38.1494 256.852 35.5414 259.347L34.7099 272.269C34.6611 273.027 34.7397 273.789 34.941 274.51C35.1422 275.23 35.4619 275.893 35.8806 276.458C36.2994 277.024 36.8084 277.48 37.3768 277.8C37.9452 278.119 38.5612 278.295 39.1874 278.317Z" fill="#2F2E41"/>
<path d="M66.3219 278.317C67.3538 278.353 68.3657 277.968 69.1967 277.225C70.0277 276.482 70.6299 275.422 70.9074 274.215L71.3876 265.516L70.4196 259.347C67.8658 256.799 65.284 256.852 62.676 259.347L61.8445 272.269C61.7957 273.027 61.8743 273.789 62.0755 274.51C62.2768 275.23 62.5965 275.893 63.0152 276.458C63.4339 277.024 63.943 277.48 64.5114 277.8C65.0798 278.119 65.6958 278.295 66.3219 278.317Z" fill="#2F2E41"/>
<path d="M64.7581 58.365C71.2293 58.365 76.4753 51.9963 76.4753 44.1401C76.4753 36.284 71.2293 29.9153 64.7581 29.9153C58.2869 29.9153 53.0409 36.284 53.0409 44.1401C53.0409 51.9963 58.2869 58.365 64.7581 58.365Z" fill="#9F616A"/>
<path d="M79.5588 151.95H34.8484C40.6433 119.346 40.6271 93.0867 36.0111 71.8502C35.7171 70.4982 35.8447 69.0619 36.3693 67.817C36.8939 66.5721 37.7786 65.6062 38.8538 65.1046L50.8825 59.488C54.4937 65.1498 59.5897 67.6227 67.5332 63.9801L73.8365 65.5498C75.3714 65.9297 76.7408 66.972 77.6912 68.4836C78.6416 69.9952 79.1085 71.8738 79.0056 73.7713C78.5416 82.0769 78.7245 90.446 78.3254 97.6706C77.0894 120.043 76.5556 137.484 79.5588 151.95Z" fill="#E6E6E6"/>
<path d="M58.5912 25.4232C58.5912 25.4232 65.3748 16.0648 73.3918 25.0489L75.5503 25.7976L74.0085 27.2949C74.0085 27.2949 82.0256 31.787 81.4089 41.1455C81.4089 41.1455 80.1755 40.7711 79.5588 41.1455C78.9421 41.5198 78.6338 45.6375 78.6338 45.6375C78.6338 45.6375 77.7087 42.6428 77.4004 42.2685C77.092 41.8941 72.7752 46.3862 65.6832 39.6481C65.6832 39.6481 63.5247 46.3862 61.058 45.6375C58.5912 44.8889 55.1994 45.2632 53.6576 50.1296C53.6576 50.1296 45.3322 28.418 58.5912 25.4232Z" fill="#2F2E41"/>
<path d="M81.7172 143.714L77.759 150.155C77.3467 150.826 77.0485 151.589 76.8816 152.401C76.7147 153.213 76.6825 154.058 76.7869 154.885C76.8912 155.712 77.1301 156.506 77.4895 157.22C77.8489 157.934 78.3218 158.555 78.8805 159.045C79.6 159.676 80.4407 160.073 81.3225 160.199C82.2044 160.324 83.0979 160.173 83.918 159.76C84.738 159.347 85.4574 158.686 86.0074 157.84C86.5574 156.994 86.9198 155.991 87.0601 154.927L88.1925 146.335L90.3509 109.275L88.8092 90.5581L78.9421 95.0502L81.7172 111.147V143.714Z" fill="#9F616A"/>
<path d="M77.7087 99.5423L89.7343 92.8042L89.1176 87.5005C89.1176 83.1095 88.024 78.821 85.9804 75.1981C83.9368 71.5751 81.0386 68.7869 77.6663 67.1994L74.0085 65.4775L77.7087 99.5423Z" fill="#E6E6E6"/>
<path d="M33.9233 142.217L37.8816 148.657C38.2938 149.328 38.5921 150.092 38.759 150.904C38.9259 151.716 38.9581 152.56 38.8537 153.388C38.7493 154.215 38.5105 155.009 38.1511 155.723C37.7916 156.437 37.3188 157.057 36.7601 157.548C36.0405 158.179 35.1998 158.576 34.318 158.701C33.4362 158.826 32.5427 158.675 31.7226 158.262C30.9025 157.85 30.1832 157.189 29.6332 156.343C29.0831 155.496 28.7207 154.494 28.5804 153.429L27.4481 144.837L25.2896 107.778L26.8313 89.0608L36.6985 93.5528L33.9233 109.649V142.217Z" fill="#9F616A"/>
<path d="M37.9319 98.0449L25.9063 91.3068L26.523 86.0031C26.523 81.612 27.6166 77.3236 29.6602 73.7006C31.7038 70.0777 34.602 67.2894 37.9743 65.702L41.632 63.9801L37.9319 98.0449Z" fill="#E6E6E6"/>
<path d="M352.758 241.277H146.982C146.123 241.276 145.299 240.861 144.691 240.123C144.083 239.385 143.741 238.384 143.74 237.341V128.703C143.741 127.659 144.083 126.659 144.691 125.921C145.299 125.183 146.123 124.768 146.982 124.767H352.758C353.617 124.768 354.441 125.183 355.049 125.921C355.657 126.659 355.999 127.659 356 128.703V237.341C355.999 238.384 355.657 239.385 355.049 240.123C354.441 240.861 353.617 241.276 352.758 241.277ZM146.982 126.341C146.467 126.342 145.972 126.591 145.607 127.034C145.243 127.477 145.038 128.077 145.037 128.703V237.341C145.038 237.967 145.243 238.567 145.607 239.01C145.972 239.453 146.467 239.702 146.982 239.702H352.758C353.273 239.702 353.768 239.453 354.133 239.01C354.497 238.567 354.702 237.967 354.703 237.341V128.703C354.702 128.077 354.497 127.477 354.133 127.034C353.768 126.591 353.273 126.342 352.758 126.341H146.982Z" fill="#E6E6E6"/>
<path d="M155.412 138.15C154.896 138.15 154.402 138.398 154.037 138.841C153.672 139.284 153.467 139.885 153.467 140.511C153.467 141.138 153.672 141.738 154.037 142.181C154.402 142.624 154.896 142.873 155.412 142.873H182.647C183.163 142.873 183.658 142.624 184.023 142.181C184.388 141.738 184.593 141.138 184.593 140.511C184.593 139.885 184.388 139.284 184.023 138.841C183.658 138.398 183.163 138.15 182.647 138.15H155.412Z" fill="#E6E6E6"/>
<path d="M341.86 154.574V198.37H158.205V175.311C159.477 174.319 160.756 173.332 162.047 172.378C167.56 168.282 173.462 164.451 179.894 163.032C182.935 162.343 186.052 162.296 189.107 162.892C192.335 163.539 195.424 164.889 198.482 166.243C201.498 167.584 204.522 168.966 207.676 169.744C210.75 170.476 213.906 170.552 217.001 169.967C222.907 168.892 228.455 166.011 233.98 163.404C239.539 160.783 245.268 158.307 251.285 157.981C257.225 157.655 263.092 159.359 268.728 161.472C280.22 165.778 291.954 172.164 304.122 167.784C316.478 163.343 327.843 150.524 341.537 154.327C341.666 154.356 341.782 154.445 341.86 154.574Z" fill="#E6E6E6"/>
<path d="M341.86 155.337C341.801 155.471 341.707 155.577 341.593 155.637C341.479 155.698 341.351 155.711 341.231 155.672C339.599 155.218 337.928 155.009 336.254 155.049C322.785 155.337 312.429 168.501 299.259 170.47C287.384 172.243 276.208 165.233 265.043 161.57C259.242 159.666 253.26 158.656 247.291 159.95C241.367 161.23 235.808 164.172 230.225 166.783C224.85 169.297 219.263 171.633 213.443 171.75C207.044 171.88 201.281 168.678 195.346 166.239C192.26 164.968 189.093 163.963 185.822 163.865C182.635 163.818 179.463 164.415 176.436 165.629C170.129 168.063 164.447 172.401 158.914 176.712C158.819 176.793 158.704 176.831 158.588 176.819C158.469 176.799 158.357 176.736 158.268 176.638C158.179 176.54 158.116 176.411 158.089 176.268C158.061 176.126 158.07 175.977 158.114 175.841C158.158 175.705 158.235 175.588 158.335 175.506L158.588 175.311C159.857 174.319 161.134 173.332 162.422 172.378C167.924 168.282 173.814 164.451 180.232 163.032C183.267 162.343 186.378 162.296 189.426 162.892C192.647 163.539 195.729 164.889 198.781 166.243C201.791 167.584 204.809 168.966 207.956 169.744C211.024 170.476 214.173 170.552 217.262 169.967C223.155 168.892 228.691 166.011 234.205 163.404C239.753 160.783 245.47 158.307 251.474 157.981C257.401 157.655 263.256 159.359 268.881 161.472C280.349 165.778 292.058 172.164 304.201 167.784C316.531 163.343 327.873 150.524 341.538 154.327C341.667 154.356 341.782 154.445 341.86 154.574C341.919 154.688 341.95 154.821 341.95 154.956C341.95 155.091 341.919 155.223 341.86 155.337Z" fill="#813FC3"/>
<path d="M183.51 166.718C184.992 166.718 186.194 165.259 186.194 163.46C186.194 161.66 184.992 160.202 183.51 160.202C182.028 160.202 180.826 161.66 180.826 163.46C180.826 165.259 182.028 166.718 183.51 166.718Z" fill="#813FC3"/>
<path d="M251.374 162.529C252.856 162.529 254.058 161.07 254.058 159.271C254.058 157.471 252.856 156.012 251.374 156.012C249.892 156.012 248.69 157.471 248.69 159.271C248.69 161.07 249.892 162.529 251.374 162.529Z" fill="#813FC3"/>
<path d="M334.191 158.34C335.674 158.34 336.875 156.881 336.875 155.081C336.875 153.282 335.674 151.823 334.191 151.823C332.709 151.823 331.507 153.282 331.507 155.081C331.507 156.881 332.709 158.34 334.191 158.34Z" fill="#813FC3"/>
<path d="M181.999 216.873C181.483 216.873 180.988 217.122 180.623 217.564C180.258 218.007 180.053 218.608 180.053 219.234C180.053 219.861 180.258 220.461 180.623 220.904C180.988 221.347 181.483 221.596 181.999 221.596H209.234C209.75 221.596 210.245 221.347 210.609 220.904C210.974 220.461 211.179 219.861 211.179 219.234C211.179 218.608 210.974 218.007 210.609 217.564C210.245 217.122 209.75 216.873 209.234 216.873H181.999Z" fill="#E6E6E6"/>
<path d="M164.491 227.894C168.549 227.894 171.84 223.899 171.84 218.972C171.84 214.045 168.549 210.05 164.491 210.05C160.432 210.05 157.141 214.045 157.141 218.972C157.141 223.899 160.432 227.894 164.491 227.894Z" fill="#813FC3"/>
<path d="M247.709 216.873C247.193 216.873 246.698 217.122 246.333 217.564C245.968 218.007 245.763 218.608 245.763 219.234C245.763 219.861 245.968 220.461 246.333 220.904C246.698 221.347 247.193 221.596 247.709 221.596H274.944C275.459 221.596 275.954 221.347 276.319 220.904C276.684 220.461 276.889 219.861 276.889 219.234C276.889 218.608 276.684 218.007 276.319 217.564C275.954 217.122 275.459 216.873 274.944 216.873H247.709Z" fill="#E6E6E6"/>
<path d="M230.2 227.894C234.259 227.894 237.55 223.899 237.55 218.972C237.55 214.045 234.259 210.05 230.2 210.05C226.142 210.05 222.851 214.045 222.851 218.972C222.851 223.899 226.142 227.894 230.2 227.894Z" fill="#813FC3"/>
<path d="M313.418 216.873C312.902 216.873 312.408 217.122 312.043 217.564C311.678 218.007 311.473 218.608 311.473 219.234C311.473 219.861 311.678 220.461 312.043 220.904C312.408 221.347 312.902 221.596 313.418 221.596H340.653C341.169 221.596 341.664 221.347 342.029 220.904C342.394 220.461 342.599 219.861 342.599 219.234C342.599 218.608 342.394 218.007 342.029 217.564C341.664 217.122 341.169 216.873 340.653 216.873H313.418Z" fill="#E6E6E6"/>
<path d="M295.91 227.894C299.969 227.894 303.259 223.899 303.259 218.972C303.259 214.045 299.969 210.05 295.91 210.05C291.851 210.05 288.561 214.045 288.561 218.972C288.561 223.899 291.851 227.894 295.91 227.894Z" fill="#813FC3"/>
<path d="M338.673 95.4342H237.152C235.173 95.4342 233.569 94.0471 233.567 92.3378V65.5499C233.569 63.8406 235.173 62.4535 237.152 62.4535H338.673C340.652 62.4535 342.256 63.8406 342.258 65.5499V92.3373C342.256 94.0466 340.652 95.4321 338.673 95.4342ZM237.152 63.691C235.965 63.691 235.002 64.5234 235.001 65.5489V92.3362C235.001 93.3617 235.965 94.193 237.152 94.1941H338.673C339.86 94.1941 340.823 93.3617 340.824 92.3362V65.5499C340.824 64.5244 339.86 63.6931 338.673 63.6921L237.152 63.691Z" fill="#E6E6E6"/>
<path d="M260.107 77.6771C259.534 77.6779 258.984 77.9547 258.579 78.4466C258.174 78.9385 257.946 79.6055 257.945 80.3012V98.6699C257.946 99.3656 258.174 100.033 258.579 100.525C258.984 101.016 259.534 101.293 260.107 101.294H337.488C338.062 101.293 338.611 101.016 339.016 100.525C339.421 100.033 339.649 99.3656 339.65 98.6699V80.3012C339.649 79.6055 339.421 78.9385 339.016 78.4466C338.611 77.9547 338.062 77.6779 337.488 77.6771H260.107Z" fill="#813FC3"/>
<path d="M270.914 95.521C273.54 95.521 275.669 92.9363 275.669 89.748C275.669 86.5596 273.54 83.975 270.914 83.975C268.288 83.975 266.159 86.5596 266.159 89.748C266.159 92.9363 268.288 95.521 270.914 95.521Z" fill="white"/>
<path d="M292.586 87.2422C292.07 87.2422 291.575 87.491 291.211 87.9339C290.846 88.3768 290.641 88.9775 290.641 89.6039C290.641 90.2302 290.846 90.8309 291.211 91.2738C291.575 91.7168 292.07 91.9656 292.586 91.9656H319.821C320.337 91.9656 320.832 91.7168 321.197 91.2738C321.561 90.8309 321.766 90.2302 321.766 89.6039C321.766 88.9775 321.561 88.3768 321.197 87.9339C320.832 87.491 320.337 87.2422 319.821 87.2422H292.586Z" fill="white"/>
<path d="M262.588 32.9807H161.067C159.088 32.9807 157.484 31.5936 157.482 29.8843V3.09644C157.484 1.3871 159.088 0 161.067 0H262.588C264.567 0 266.171 1.3871 266.173 3.09644V29.8838C266.171 31.5931 264.567 32.9786 262.588 32.9807ZM161.067 1.23753C159.88 1.23753 158.917 2.06989 158.916 3.09539V29.8827C158.916 30.9082 159.88 31.7395 161.067 31.7406H262.588C263.775 31.7406 264.738 30.9082 264.739 29.8827V3.09644C264.739 2.07094 263.775 1.23963 262.588 1.23858L161.067 1.23753Z" fill="#E6E6E6"/>
<path d="M184.022 15.2235C183.448 15.2243 182.899 15.5011 182.494 15.993C182.089 16.4849 181.861 17.1519 181.86 17.8476V36.2163C181.861 36.912 182.089 37.579 182.494 38.0709C182.899 38.5629 183.448 38.8396 184.022 38.8404H261.403C261.977 38.8396 262.526 38.5629 262.931 38.0709C263.336 37.579 263.564 36.912 263.565 36.2163V17.8476C263.564 17.1519 263.336 16.4849 262.931 15.993C262.526 15.5011 261.977 15.2243 261.403 15.2235H184.022Z" fill="#813FC3"/>
<path d="M194.829 33.0674C197.455 33.0674 199.584 30.4827 199.584 27.2944C199.584 24.106 197.455 21.5214 194.829 21.5214C192.203 21.5214 190.074 24.106 190.074 27.2944C190.074 30.4827 192.203 33.0674 194.829 33.0674Z" fill="white"/>
<path d="M216.501 24.7886C215.985 24.7886 215.49 25.0374 215.126 25.4803C214.761 25.9232 214.556 26.5239 214.556 27.1503C214.556 27.7766 214.761 28.3773 215.126 28.8202C215.49 29.2631 215.985 29.512 216.501 29.512H243.736C244.252 29.512 244.747 29.2631 245.112 28.8202C245.476 28.3773 245.681 27.7766 245.681 27.1503C245.681 26.5239 245.476 25.9232 245.112 25.4803C244.747 25.0374 244.252 24.7886 243.736 24.7886H216.501Z" fill="white"/>
</g>
<defs>
<clipPath id="clip0">
<rect width="356" height="283" fill="white"/>
</clipPath>
</defs>
</svg>
