<svg width="453" height="119" viewBox="0 0 453 119" fill="none" xmlns="http://www.w3.org/2000/svg">
<g filter="url(#filter0_i)">
<g filter="url(#filter1_d)">
<rect x="4" width="445" height="111" rx="55.5" fill="white"/>
<rect x="5.5" y="1.5" width="442" height="108" rx="54" stroke="#6C63FF" stroke-width="3"/>
</g>
<path d="M163.88 44.52V62.84C163.88 66.6533 163.093 69.3467 161.52 70.92C159.947 72.4667 157.667 73.24 154.68 73.24C152.76 73.24 151.147 72.9867 149.84 72.48C148.56 71.9733 147.373 71.1733 146.28 70.08L149.4 66.68C149.853 67.1333 150.533 67.52 151.44 67.84C152.373 68.1333 153.427 68.28 154.6 68.28C155.8 68.28 156.72 68 157.36 67.44C158 66.8533 158.32 65.7733 158.32 64.2V44.52H163.88ZM181.71 62.68V60.6C181.71 58.6267 181.416 57.12 180.83 56.08C180.27 55.04 179.083 54.52 177.27 54.52C174.336 54.52 172.87 56.4933 172.87 60.44V62.52C172.87 66.76 174.336 68.88 177.27 68.88C179.163 68.88 180.403 68.1733 180.99 66.76C181.47 65.64 181.71 64.28 181.71 62.68ZM186.91 61.48C186.91 66.4133 185.976 69.72 184.11 71.4C182.536 72.84 180.256 73.56 177.27 73.56C173.456 73.56 170.883 72.44 169.55 70.2C168.296 68.1467 167.67 65.24 167.67 61.48C167.67 57.96 168.296 55.2 169.55 53.2C170.936 50.96 173.456 49.84 177.11 49.84C180.79 49.84 183.336 50.8267 184.75 52.8C186.19 54.7467 186.91 57.64 186.91 61.48ZM193.708 41.44C194.962 41.44 195.775 41.64 196.148 42.04C196.522 42.4133 196.708 43.2267 196.708 44.48C196.708 45.7067 196.508 46.52 196.108 46.92C195.735 47.2933 194.922 47.48 193.668 47.48C192.442 47.48 191.628 47.28 191.228 46.88C190.855 46.48 190.668 45.6667 190.668 44.44C190.668 43.2133 190.855 42.4133 191.228 42.04C191.628 41.64 192.455 41.44 193.708 41.44ZM196.268 73H191.068V51H196.268V73ZM219.804 73H214.604V58.4C214.604 57.0933 214.337 56.2 213.804 55.72C213.271 55.24 212.524 55 211.564 55L206.884 56.96V73H201.684V50.16H205.564L206.764 52.88L213.164 49.92C214.951 49.92 216.497 50.5867 217.804 51.92C219.137 53.2267 219.804 55.1467 219.804 57.68V73ZM252.031 73H246.831V58.4C246.831 57.0933 246.564 56.2 246.031 55.72C245.497 55.24 244.751 55 243.791 55L239.111 56.96V73H233.911V50.16H237.791L238.991 52.88L245.391 49.92C247.177 49.92 248.724 50.5867 250.031 51.92C251.364 53.2267 252.031 55.1467 252.031 57.68V73ZM269.6 62.68V60.6C269.6 58.6267 269.307 57.12 268.72 56.08C268.16 55.04 266.974 54.52 265.16 54.52C262.227 54.52 260.76 56.4933 260.76 60.44V62.52C260.76 66.76 262.227 68.88 265.16 68.88C267.054 68.88 268.294 68.1733 268.88 66.76C269.36 65.64 269.6 64.28 269.6 62.68ZM274.8 61.48C274.8 66.4133 273.867 69.72 272 71.4C270.427 72.84 268.147 73.56 265.16 73.56C261.347 73.56 258.774 72.44 257.44 70.2C256.187 68.1467 255.56 65.24 255.56 61.48C255.56 57.96 256.187 55.2 257.44 53.2C258.827 50.96 261.347 49.84 265 49.84C268.68 49.84 271.227 50.8267 272.64 52.8C274.08 54.7467 274.8 57.64 274.8 61.48ZM306.239 50.16L299.879 73H295.599L291.239 59.12L286.879 73H282.599L276.199 50.16H281.719L285.079 65.04L288.559 52.8C288.959 51.04 289.866 50.16 291.279 50.16C291.946 50.16 292.479 50.3733 292.879 50.8C293.279 51.2267 293.612 51.8933 293.879 52.8L297.399 65.04L300.759 50.16H306.239Z" fill="#6C63FF"/>
</g>
<defs>
<filter id="filter0_i" x="4" y="0" width="445" height="115" filterUnits="userSpaceOnUse" color-interpolation-filters="sRGB">
<feFlood flood-opacity="0" result="BackgroundImageFix"/>
<feBlend mode="normal" in="SourceGraphic" in2="BackgroundImageFix" result="shape"/>
<feColorMatrix in="SourceAlpha" type="matrix" values="0 0 0 0 0 0 0 0 0 0 0 0 0 0 0 0 0 0 127 0" result="hardAlpha"/>
<feOffset dy="4"/>
<feGaussianBlur stdDeviation="2"/>
<feComposite in2="hardAlpha" operator="arithmetic" k2="-1" k3="1"/>
<feColorMatrix type="matrix" values="0 0 0 0 0 0 0 0 0 0 0 0 0 0 0 0 0 0 0.25 0"/>
<feBlend mode="normal" in2="shape" result="effect1_innerShadow"/>
</filter>
<filter id="filter1_d" x="0" y="0" width="453" height="119" filterUnits="userSpaceOnUse" color-interpolation-filters="sRGB">
<feFlood flood-opacity="0" result="BackgroundImageFix"/>
<feColorMatrix in="SourceAlpha" type="matrix" values="0 0 0 0 0 0 0 0 0 0 0 0 0 0 0 0 0 0 127 0"/>
<feOffset dy="4"/>
<feGaussianBlur stdDeviation="2"/>
<feColorMatrix type="matrix" values="0 0 0 0 0 0 0 0 0 0 0 0 0 0 0 0 0 0 0.25 0"/>
<feBlend mode="normal" in2="BackgroundImageFix" result="effect1_dropShadow"/>
<feBlend mode="normal" in="SourceGraphic" in2="effect1_dropShadow" result="shape"/>
</filter>
</defs>
</svg>
