<svg width="457" height="123" viewBox="0 0 457 123" fill="none" xmlns="http://www.w3.org/2000/svg">
<g filter="url(#filter0_d)">
<rect x="6" y="2" width="445" height="111" rx="55.5" fill="white"/>
<rect x="5" y="1" width="447" height="113" rx="56.5" stroke="#3E3F49" stroke-width="2"/>
</g>
<path d="M165.88 46.52V64.84C165.88 68.6533 165.093 71.3467 163.52 72.92C161.947 74.4667 159.667 75.24 156.68 75.24C154.76 75.24 153.147 74.9867 151.84 74.48C150.56 73.9733 149.373 73.1733 148.28 72.08L151.4 68.68C151.853 69.1333 152.533 69.52 153.44 69.84C154.373 70.1333 155.427 70.28 156.6 70.28C157.8 70.28 158.72 70 159.36 69.44C160 68.8533 160.32 67.7733 160.32 66.2V46.52H165.88ZM183.71 64.68V62.6C183.71 60.6267 183.416 59.12 182.83 58.08C182.27 57.04 181.083 56.52 179.27 56.52C176.336 56.52 174.87 58.4933 174.87 62.44V64.52C174.87 68.76 176.336 70.88 179.27 70.88C181.163 70.88 182.403 70.1733 182.99 68.76C183.47 67.64 183.71 66.28 183.71 64.68ZM188.91 63.48C188.91 68.4133 187.976 71.72 186.11 73.4C184.536 74.84 182.256 75.56 179.27 75.56C175.456 75.56 172.883 74.44 171.55 72.2C170.296 70.1467 169.67 67.24 169.67 63.48C169.67 59.96 170.296 57.2 171.55 55.2C172.936 52.96 175.456 51.84 179.11 51.84C182.79 51.84 185.336 52.8267 186.75 54.8C188.19 56.7467 188.91 59.64 188.91 63.48ZM195.708 43.44C196.962 43.44 197.775 43.64 198.148 44.04C198.522 44.4133 198.708 45.2267 198.708 46.48C198.708 47.7067 198.508 48.52 198.108 48.92C197.735 49.2933 196.922 49.48 195.668 49.48C194.442 49.48 193.628 49.28 193.228 48.88C192.855 48.48 192.668 47.6667 192.668 46.44C192.668 45.2133 192.855 44.4133 193.228 44.04C193.628 43.64 194.455 43.44 195.708 43.44ZM198.268 75H193.068V53H198.268V75ZM221.804 75H216.604V60.4C216.604 59.0933 216.337 58.2 215.804 57.72C215.271 57.24 214.524 57 213.564 57L208.884 58.96V75H203.684V52.16H207.564L208.764 54.88L215.164 51.92C216.951 51.92 218.497 52.5867 219.804 53.92C221.137 55.2267 221.804 57.1467 221.804 59.68V75ZM254.031 75H248.831V60.4C248.831 59.0933 248.564 58.2 248.031 57.72C247.497 57.24 246.751 57 245.791 57L241.111 58.96V75H235.911V52.16H239.791L240.991 54.88L247.391 51.92C249.177 51.92 250.724 52.5867 252.031 53.92C253.364 55.2267 254.031 57.1467 254.031 59.68V75ZM271.6 64.68V62.6C271.6 60.6267 271.307 59.12 270.72 58.08C270.16 57.04 268.974 56.52 267.16 56.52C264.227 56.52 262.76 58.4933 262.76 62.44V64.52C262.76 68.76 264.227 70.88 267.16 70.88C269.054 70.88 270.294 70.1733 270.88 68.76C271.36 67.64 271.6 66.28 271.6 64.68ZM276.8 63.48C276.8 68.4133 275.867 71.72 274 73.4C272.427 74.84 270.147 75.56 267.16 75.56C263.347 75.56 260.774 74.44 259.44 72.2C258.187 70.1467 257.56 67.24 257.56 63.48C257.56 59.96 258.187 57.2 259.44 55.2C260.827 52.96 263.347 51.84 267 51.84C270.68 51.84 273.227 52.8267 274.64 54.8C276.08 56.7467 276.8 59.64 276.8 63.48ZM308.239 52.16L301.879 75H297.599L293.239 61.12L288.879 75H284.599L278.199 52.16H283.719L287.079 67.04L290.559 54.8C290.959 53.04 291.866 52.16 293.279 52.16C293.946 52.16 294.479 52.3733 294.879 52.8C295.279 53.2267 295.612 53.8933 295.879 54.8L299.399 67.04L302.759 52.16H308.239Z" fill="#3E3F49"/>
<defs>
<filter id="filter0_d" x="0" y="0" width="457" height="123" filterUnits="userSpaceOnUse" color-interpolation-filters="sRGB">
<feFlood flood-opacity="0" result="BackgroundImageFix"/>
<feColorMatrix in="SourceAlpha" type="matrix" values="0 0 0 0 0 0 0 0 0 0 0 0 0 0 0 0 0 0 127 0"/>
<feOffset dy="4"/>
<feGaussianBlur stdDeviation="2"/>
<feColorMatrix type="matrix" values="0 0 0 0 0 0 0 0 0 0 0 0 0 0 0 0 0 0 0.25 0"/>
<feBlend mode="normal" in2="BackgroundImageFix" result="effect1_dropShadow"/>
<feBlend mode="normal" in="SourceGraphic" in2="effect1_dropShadow" result="shape"/>
</filter>
</defs>
</svg>
