<?xml version="1.0" standalone="no"?><svg xmlns:xlink="http://www.w3.org/1999/xlink" xmlns="http://www.w3.org/2000/svg" viewBox="0 0 1000 500" preserveAspectRatio="xMaxYMax slice"><g transform="scale(1.0460251046025104)"><rect x="0" y="0" width="956" height="478" fill="#ffffff"/><rect x="0" y="0" width="59.75" height="59.75" fill="#ffffff"/><polygon points="0,0 29.88,0 0,29.88" fill="#eaeef2"/><polygon points="59.76,0 59.76,29.88 29.88,29.88" fill="#fdfcfe"/><polygon points="29.88,29.88 29.88,59.76 0,59.76" fill="#f4f6f8"/><polygon points="59.76,29.88 59.76,59.76 29.88,59.76" fill="#eff2f5"/><polygon points="239,0 239,59.75 179.25,59.75" fill="#eaedf1"/><polygon points="358.5,0 418.25,59.75 358.5,59.75" fill="#eaeef2"/><polygon points="717,0 776.75,0 776.75,59.75" fill="#f7f5fa"/><polygon points="896.25,0 956,0 956,59.75" fill="#f1f4f6"/><polygon points="179.25,59.75 239,59.75 179.25,119.5" fill="#f2f5f7"/><polygon points="239,59.75 298.75,59.75 239,119.5" fill="#faf8fc"/><polygon points="298.75,59.75 358.5,119.5 298.75,119.5" fill="#fdfdfd"/><rect x="358.5" y="59.75" width="59.75" height="59.75" fill="#ffffff"/><polygon points="358.5,59.75 388.38,89.63 358.5,89.63" fill="#f1f3f6"/><polygon points="418.26,59.75 418.26,89.63 388.38,89.63" fill="#fefdfe"/><polygon points="388.38,89.63 388.38,119.50999999999999 358.5,119.50999999999999" fill="#fefefe"/><polygon points="418.26,89.63 418.26,119.50999999999999 388.38,119.50999999999999" fill="#eceff3"/><polygon points="537.75,59.75 537.75,119.5 478,119.5" fill="#f0f3f5"/><polygon points="836.5,59.75 836.5,119.5 776.75,119.5" fill="#f8f5fa"/><polygon points="0,119.5 59.75,119.5 0,179.25" fill="#faf8fc"/><polygon points="59.75,119.5 119.5,119.5 59.75,179.25" fill="#f5f7f8"/><polygon points="119.5,119.5 179.25,119.5 119.5,179.25" fill="#ffffff"/><polygon points="537.75,119.5 597.5,179.25 537.75,179.25" fill="#f9fafb"/><polygon points="717,119.5 776.75,179.25 717,179.25" fill="#fcfbfd"/><polygon points="896.25,119.5 956,179.25 896.25,179.25" fill="#faf8fc"/><polygon points="59.75,179.25 119.5,179.25 59.75,239" fill="#fefefe"/><polygon points="119.5,179.25 179.25,179.25 119.5,239" fill="#feffff"/><polygon points="537.75,179.25 597.5,179.25 597.5,239" fill="#f7f4fa"/><polygon points="836.5,179.25 896.25,239 836.5,239" fill="#ebeef2"/><rect x="239" y="239" width="59.75" height="59.75" fill="#ffffff"/><polygon points="239,239 268.88,268.88 239,268.88" fill="#faf9fc"/><polygon points="268.88,239 298.76,239 268.88,268.88" fill="#ebeef2"/><polygon points="268.88,268.88 268.88,298.76 239,298.76" fill="#eff2f5"/><polygon points="268.88,268.88 298.76,268.88 298.76,298.76" fill="#f5f7f9"/><polygon points="418.25,239 418.25,298.75 358.5,298.75" fill="#fbfcfd"/><polygon points="537.75,239 597.5,239 537.75,298.75" fill="#edf0f3"/><rect x="0" y="298.75" width="59.75" height="59.75" fill="#ffffff"/><polygon points="0,298.75 29.88,328.63 0,328.63" fill="#eaeef1"/><polygon points="59.76,298.75 59.76,328.63 29.88,328.63" fill="#f7f5fa"/><polygon points="0,328.63 29.88,328.63 0,358.51" fill="#fefefe"/><polygon points="29.88,328.63 59.76,328.63 59.76,358.51" fill="#f9fafb"/><rect x="119.5" y="298.75" width="59.75" height="59.75" fill="#ffffff"/><polygon points="119.5,298.75 149.38,298.75 149.38,328.63" fill="#eef1f4"/><polygon points="149.38,298.75 179.26,298.75 149.38,328.63" fill="#fdfcfd"/><polygon points="119.5,328.63 149.38,358.51 119.5,358.51" fill="#fefefe"/><polygon points="149.38,328.63 179.26,328.63 179.26,358.51" fill="#fdfdfe"/><rect x="298.75" y="298.75" width="59.75" height="59.75" fill="#ffffff"/><polygon points="298.75,298.75 328.63,298.75 298.75,328.63" fill="#f5f7f9"/><polygon points="328.63,298.75 358.51,298.75 358.51,328.63" fill="#faf8fc"/><polygon points="298.75,328.63 328.63,358.51 298.75,358.51" fill="#eef1f4"/><polygon points="328.63,328.63 358.51,328.63 358.51,358.51" fill="#f7f8fa"/><rect x="418.25" y="298.75" width="59.75" height="59.75" fill="#ffffff"/><polygon points="448.13,298.75 448.13,328.63 418.25,328.63" fill="#fdfdfe"/><polygon points="448.13,298.75 478.01,298.75 448.13,328.63" fill="#f9f6fb"/><polygon points="418.25,328.63 448.13,328.63 448.13,358.51" fill="#eef1f4"/><polygon points="448.13,328.63 478.01,328.63 448.13,358.51" fill="#f8f6fb"/><polygon points="478,298.75 537.75,298.75 478,358.5" fill="#f0f3f6"/><polygon points="657.25,298.75 657.25,358.5 597.5,358.5" fill="#eff2f5"/><polygon points="657.25,298.75 717,298.75 717,358.5" fill="#fdfcfe"/><polygon points="717,298.75 776.75,298.75 776.75,358.5" fill="#ecf0f3"/><polygon points="836.5,298.75 896.25,298.75 896.25,358.5" fill="#fbfcfd"/><rect x="896.25" y="298.75" width="59.75" height="59.75" fill="#ffffff"/><polygon points="896.25,298.75 926.13,298.75 926.13,328.63" fill="#f6f7f9"/><polygon points="956.01,298.75 956.01,328.63 926.13,328.63" fill="#fafbfc"/><polygon points="896.25,328.63 926.13,358.51 896.25,358.51" fill="#ebeff2"/><polygon points="926.13,328.63 956.01,328.63 926.13,358.51" fill="#f7f9fa"/><rect x="0" y="358.5" width="59.75" height="59.75" fill="#ffffff"/><polygon points="0,358.5 29.88,358.5 29.88,388.38" fill="#f9f6fb"/><polygon points="59.76,358.5 59.76,388.38 29.88,388.38" fill="#fcfbfd"/><polygon points="29.88,388.38 29.88,418.26 0,418.26" fill="#f9f7fb"/><polygon points="29.88,388.38 59.76,388.38 29.88,418.26" fill="#f2f5f7"/><polygon points="119.5,358.5 179.25,418.25 119.5,418.25" fill="#fcfcfd"/><polygon points="298.75,358.5 358.5,358.5 298.75,418.25" fill="#eaeef2"/><rect x="537.75" y="358.5" width="59.75" height="59.75" fill="#ffffff"/><polygon points="567.63,358.5 567.63,388.38 537.75,388.38" fill="#f8f6fb"/><polygon points="567.63,358.5 597.51,388.38 567.63,388.38" fill="#f9fafb"/><polygon points="537.75,388.38 567.63,388.38 537.75,418.26" fill="#eef1f4"/><polygon points="567.63,388.38 597.51,418.26 567.63,418.26" fill="#fefefe"/><polygon points="896.25,358.5 956,418.25 896.25,418.25" fill="#eef1f4"/><polygon points="0,418.25 59.75,478 0,478" fill="#f8f5fb"/><polygon points="59.75,418.25 119.5,418.25 59.75,478" fill="#eef1f4"/><polygon points="418.25,418.25 418.25,478 358.5,478" fill="#f8f5fa"/><rect x="657.25" y="418.25" width="59.75" height="59.75" fill="#ffffff"/><polygon points="657.25,418.25 687.13,448.13 657.25,448.13" fill="#fbf9fc"/><polygon points="687.13,418.25 717.01,418.25 687.13,448.13" fill="#fcfbfd"/><polygon points="687.13,448.13 687.13,478.01 657.25,478.01" fill="#ecf0f3"/><polygon points="687.13,448.13 717.01,448.13 717.01,478.01" fill="#fcfdfd"/><rect x="717" y="418.25" width="59.75" height="59.75" fill="#ffffff"/><polygon points="717,418.25 746.88,448.13 717,448.13" fill="#faf8fc"/><polygon points="746.88,418.25 776.76,418.25 746.88,448.13" fill="#f7f9fa"/><polygon points="717,448.13 746.88,448.13 717,478.01" fill="#fdfefe"/><polygon points="746.88,448.13 776.76,478.01 746.88,478.01" fill="#f2f4f7"/><rect x="776.75" y="418.25" width="59.75" height="59.75" fill="#ffffff"/><polygon points="776.75,418.25 806.63,448.13 776.75,448.13" fill="#fcfbfd"/><polygon points="836.51,418.25 836.51,448.13 806.63,448.13" fill="#fafbfc"/><polygon points="806.63,448.13 806.63,478.01 776.75,478.01" fill="#fcfbfd"/><polygon points="806.63,448.13 836.51,448.13 836.51,478.01" fill="#fbfcfc"/></g></svg>